<?xml version="1.0" encoding="UTF-8"?>
<svg version="1.1" xmlns="http://www.w3.org/2000/svg" width="256" height="213">
<path d="M0 0 C84.48 0 168.96 0 256 0 C256 70.29 256 140.58 256 213 C171.52 213 87.04 213 0 213 C0 142.71 0 72.42 0 0 Z " fill="#000000" transform="translate(0,0)"/>
<path d="M0 0 C10.23 0 20.46 0 31 0 C31 1.32 31 2.64 31 4 C32.258125 3.690625 33.51625 3.38125 34.8125 3.0625 C39.43283367 2.02109146 43.99523231 1.5713553 48.71484375 1.24609375 C51.02791486 1.1314065 51.02791486 1.1314065 53 0 C55.03232634 -0.08527628 57.06747006 -0.10716135 59.1015625 -0.09765625 C60.31328125 -0.09443359 61.525 -0.09121094 62.7734375 -0.08789062 C64.04445313 -0.07951172 65.31546875 -0.07113281 66.625 -0.0625 C67.90375 -0.05798828 69.1825 -0.05347656 70.5 -0.04882812 C73.66671292 -0.03701203 76.83333356 -0.02053815 80 0 C80 0.66 80 1.32 80 2 C80.99 2 81.98 2 83 2 C83.495 3.485 83.495 3.485 84 5 C84.99 5.495 84.99 5.495 86 6 C88.79934764 9.8104475 88.26582771 14.29637752 88.22705078 18.80761719 C88.22734283 19.69577621 88.22763489 20.58393524 88.22793579 21.49900818 C88.22654357 24.43173018 88.21098737 27.36419744 88.1953125 30.296875 C88.19158199 32.33139914 88.1887352 34.36592508 88.18673706 36.40045166 C88.17910362 41.75328539 88.15945755 47.10601045 88.1373291 52.45880127 C88.11686449 57.92173798 88.10773402 63.38469225 88.09765625 68.84765625 C88.07621144 79.56515189 88.04207892 90.28256691 88 101 C87.34 101 86.68 101 86 101 C86 103.64 86 106.28 86 109 C84.515 109.495 84.515 109.495 83 110 C82.505 111.485 82.505 111.485 82 113 C80.35178756 114.03013277 78.68496298 115.03114628 77 116 C76.67 116.66 76.34 117.32 76 118 C70.57250261 121.41731317 64.18303078 121.14279549 57.9765625 121.09765625 C56.98305786 121.09614563 56.98305786 121.09614563 55.96948242 121.09460449 C53.52130372 121.08941589 51.07314992 121.07545499 48.625 121.0625 C43.13875 121.041875 37.6525 121.02125 32 121 C32 135.19 32 149.38 32 164 C21.44 164 10.88 164 0 164 C0 109.88 0 55.76 0 0 Z " fill="#EB1B24" transform="translate(87,39)"/>
<path d="M0 0 C0.91007812 0.00902344 1.82015625 0.01804688 2.7578125 0.02734375 C3.80582031 0.04474609 3.80582031 0.04474609 4.875 0.0625 C4.99093729 8.84213382 5.07973657 17.62150348 5.13406086 26.40173626 C5.16013629 30.47895567 5.19549537 34.55565073 5.25219727 38.63256836 C5.30659253 42.56834363 5.336436 46.50361512 5.34938622 50.43973732 C5.35861281 51.9400812 5.3766309 53.44039802 5.40365028 54.94052696 C5.44004452 57.04518196 5.44494161 59.14776565 5.44262695 61.25268555 C5.45373001 62.44959518 5.46483307 63.64650482 5.47627258 64.87968445 C4.70423999 68.96641218 2.99812496 70.42154144 -0.125 73.0625 C-0.455 73.3925 -0.785 73.7225 -1.125 74.0625 C-2.83272358 74.14963831 -4.54398649 74.16950007 -6.25390625 74.16015625 C-7.80561523 74.15532227 -7.80561523 74.15532227 -9.38867188 74.15039062 C-10.47728516 74.14201172 -11.56589844 74.13363281 -12.6875 74.125 C-14.3262207 74.11823242 -14.3262207 74.11823242 -15.99804688 74.11132812 C-18.70708495 74.09949826 -21.41601599 74.08301543 -24.125 74.0625 C-24.24078185 65.24832412 -24.32965752 56.43440942 -24.38406086 47.6196394 C-24.41017022 43.52667089 -24.4455912 39.43422209 -24.50219727 35.34155273 C-24.55647158 31.3928192 -24.58641045 27.44458589 -24.59938622 23.49550819 C-24.60863456 21.98792963 -24.62669476 20.48037886 -24.65365028 18.97301292 C-24.68988381 16.86315862 -24.69494835 14.75537836 -24.69262695 12.64526367 C-24.70373001 11.44391281 -24.71483307 10.24256195 -24.72627258 9.00480652 C-24.125 6.0625 -24.125 6.0625 -21.77970886 4.1945343 C-18.80407372 2.925649 -16.14009525 2.37512171 -12.9375 1.9375 C-8.37335956 1.29593155 -4.60416998 -0.05902782 0 0 Z " fill="#000000" transform="translate(140.125,61.9375)"/>
<path d="M0 0 C10.23 0 20.46 0 31 0 C31 1.32 31 2.64 31 4 C32.258125 3.690625 33.51625 3.38125 34.8125 3.0625 C39.43283367 2.02109146 43.99523231 1.5713553 48.71484375 1.24609375 C51.02791486 1.1314065 51.02791486 1.1314065 53 0 C55.03232634 -0.08527628 57.06747006 -0.10716135 59.1015625 -0.09765625 C60.31328125 -0.09443359 61.525 -0.09121094 62.7734375 -0.08789062 C64.04445313 -0.07951172 65.31546875 -0.07113281 66.625 -0.0625 C67.90375 -0.05798828 69.1825 -0.05347656 70.5 -0.04882812 C73.66671292 -0.03701203 76.83333356 -0.02053815 80 0 C80 0.66 80 1.32 80 2 C80.99 2 81.98 2 83 2 C83.495 3.485 83.495 3.485 84 5 C84.99 5.495 84.99 5.495 86 6 C88.79934764 9.8104475 88.26582771 14.29637752 88.22705078 18.80761719 C88.22734283 19.69577621 88.22763489 20.58393524 88.22793579 21.49900818 C88.22654357 24.43173018 88.21098737 27.36419744 88.1953125 30.296875 C88.19158199 32.33139914 88.1887352 34.36592508 88.18673706 36.40045166 C88.17910362 41.75328539 88.15945755 47.10601045 88.1373291 52.45880127 C88.11686449 57.92173798 88.10773402 63.38469225 88.09765625 68.84765625 C88.07621144 79.56515189 88.04207892 90.28256691 88 101 C87.34 101 86.68 101 86 101 C86 103.64 86 106.28 86 109 C84.515 109.495 84.515 109.495 83 110 C82.505 111.485 82.505 111.485 82 113 C80.35178756 114.03013277 78.68496298 115.03114628 77 116 C76.67 116.66 76.34 117.32 76 118 C70.57250261 121.41731317 64.18303078 121.14279549 57.9765625 121.09765625 C56.98305786 121.09614563 56.98305786 121.09614563 55.96948242 121.09460449 C53.52130372 121.08941589 51.07314992 121.07545499 48.625 121.0625 C43.13875 121.041875 37.6525 121.02125 32 121 C32 135.19 32 149.38 32 164 C21.44 164 10.88 164 0 164 C0 109.88 0 55.76 0 0 Z M1 1 C1 54.13 1 107.26 1 162 C10.24 162 19.48 162 29 162 C29.33 147.48 29.66 132.96 30 118 C31.98 118 33.96 118 36 118 C36.33 118.33 36.66 118.66 37 119 C57.09047027 120.64852719 57.09047027 120.64852719 76 115 C76.495 113.515 76.495 113.515 77 112 C77.8971875 111.5978125 77.8971875 111.5978125 78.8125 111.1875 C82.12174992 109.39105004 83.21628001 107.30764677 85 104 C85.56533851 100.85118237 85.54729892 97.76259216 85.51757812 94.56982422 C85.5245874 93.63903046 85.53159668 92.70823669 85.53881836 91.74923706 C85.55637034 88.68408045 85.54478724 85.61985288 85.53125 82.5546875 C85.53394525 80.42049991 85.53782795 78.28631352 85.54284668 76.15213013 C85.54873756 71.68512246 85.54019006 67.21843521 85.52148438 62.75146484 C85.49866765 57.02344781 85.51183808 51.29617935 85.53577423 45.56818962 C85.55021954 41.16385239 85.54563247 36.75969305 85.53526306 32.35535049 C85.53259372 30.24301185 85.53587281 28.13065708 85.54518127 26.01833725 C85.55532884 23.06891739 85.53987178 20.12071572 85.51757812 17.17138672 C85.52567505 16.29752319 85.53377197 15.42365967 85.54211426 14.52331543 C85.48270609 9.62477808 85.48270609 9.62477808 83.09265137 5.42678833 C81.14671773 3.8122228 81.14671773 3.8122228 79 4 C79 3.34 79 2.68 79 2 C69.98029071 -2.50985464 53.9286609 1.47233526 44.43847656 2.93261719 C39.90605232 3.62978584 35.60503888 4.18298168 31 4 C30.67 3.01 30.34 2.02 30 1 C20.43 1 10.86 1 1 1 Z " fill="#7E0E13" transform="translate(87,39)"/>
<path d="M0 0 C10.23 0 20.46 0 31 0 C30.67 1.32 30.34 2.64 30 4 C30 3.01 30 2.02 30 1 C20.43 1 10.86 1 1 1 C1 54.13 1 107.26 1 162 C10.24 162 19.48 162 29 162 C28.98839844 158.83535156 28.97679688 155.67070312 28.96484375 152.41015625 C28.95705406 149.35880636 28.9509768 146.30745756 28.94506836 143.25610352 C28.94002702 141.12881986 28.93319409 139.00153969 28.92456055 136.87426758 C28.91248621 133.82372174 28.90676986 130.77322155 28.90234375 127.72265625 C28.89718246 126.76537125 28.89202118 125.80808624 28.88670349 124.8217926 C28.88659019 123.50053627 28.88659019 123.50053627 28.88647461 122.15258789 C28.884254 121.37315323 28.88203339 120.59371857 28.87974548 119.79066467 C29 118 29 118 30 117 C33 116.875 33 116.875 36 117 C36.33 117.33 36.66 117.66 37 118 C38.92478813 118.15806531 40.8549921 118.251135 42.78515625 118.31640625 C43.95498047 118.35830078 45.12480469 118.40019531 46.33007812 118.44335938 C47.56177734 118.48267578 48.79347656 118.52199219 50.0625 118.5625 C51.29806641 118.60568359 52.53363281 118.64886719 53.80664062 118.69335938 C56.87097335 118.79984198 59.93539073 118.90185424 63 119 C63 119.33 63 119.66 63 120 C52.44 120 41.88 120 31 120 C31 134.19 31 148.38 31 163 C20.77 163 10.54 163 0 163 C0 109.21 0 55.42 0 0 Z " fill="#830F12" transform="translate(87,39)"/>
<path d="M0 0 C0 22.44 0 44.88 0 68 C-0.33 68 -0.66 68 -1 68 C-1 45.89 -1 23.78 -1 1 C-3.97 1.66 -6.94 2.32 -10 3 C-12.33222958 3.07176091 -14.66877637 3.09920101 -17 3 C-17 3.99 -17 4.98 -17 6 C-19.97 6 -22.94 6 -26 6 C-26 28.11 -26 50.22 -26 73 C-14.39043266 72.73099247 -14.39043266 72.73099247 -3 71 C-4.75023895 73.22175281 -5.60228592 73.94475643 -8.4519043 74.34057617 C-9.39976807 74.32486572 -10.34763184 74.30915527 -11.32421875 74.29296875 C-12.35224609 74.28330078 -13.38027344 74.27363281 -14.43945312 74.26367188 C-15.51130859 74.23853516 -16.58316406 74.21339844 -17.6875 74.1875 C-18.77095703 74.17396484 -19.85441406 74.16042969 -20.97070312 74.14648438 C-23.64763405 74.11110643 -26.32356838 74.06174189 -29 74 C-29.11578185 65.18582412 -29.20465752 56.37190942 -29.25906086 47.5571394 C-29.28517022 43.46417089 -29.3205912 39.37172209 -29.37719727 35.27905273 C-29.43147158 31.3303192 -29.46141045 27.38208589 -29.47438622 23.43300819 C-29.48363456 21.92542963 -29.50169476 20.41787886 -29.52865028 18.91051292 C-29.56488381 16.80065862 -29.56994835 14.69287836 -29.56762695 12.58276367 C-29.57873001 11.38141281 -29.58983307 10.18006195 -29.60127258 8.94230652 C-29 6 -29 6 -26.65470886 4.1320343 C-23.67907372 2.863149 -21.01509525 2.31262171 -17.8125 1.875 C-4.47368421 0 -4.47368421 0 0 0 Z " fill="#750E11" transform="translate(145,62)"/>
<path d="M0 0 C0.02314123 8.83155316 0.0409242 17.66309594 0.05181217 26.49467278 C0.05703709 30.59525496 0.06412768 34.69581645 0.07543945 38.79638672 C0.08628218 42.75154957 0.09227979 46.70669248 0.09487724 50.66186905 C0.09672898 52.17298827 0.10034482 53.68410637 0.10573006 55.19521713 C0.11295886 57.30708958 0.11399016 59.41887895 0.11352539 61.53076172 C0.115746 62.73433319 0.11796661 63.93790466 0.12025452 65.177948 C0 68 0 68 -1 70 C-3.3140622 70.73075648 -5.64828869 71.40138258 -8 72 C-8 71.34 -8 70.68 -8 70 C-5.525 69.505 -5.525 69.505 -3 69 C-3 47.22 -3 25.44 -3 3 C-7.29 3 -11.58 3 -16 3 C-16 2.67 -16 2.34 -16 2 C-14.64832143 1.65671655 -13.29345725 1.32597303 -11.9375 1 C-10.80634766 0.7215625 -10.80634766 0.7215625 -9.65234375 0.4375 C-6.41035149 -0.09726161 -3.28095117 -0.02690683 0 0 Z " fill="#340506" transform="translate(144,63)"/>
<path d="M0 0 C9.57 0 19.14 0 29 0 C29.33 0.99 29.66 1.98 30 3 C34.29 3 38.58 3 43 3 C43 3.66 43 4.32 43 5 C37.72 5 32.44 5 27 5 C26.67 3.68 26.34 2.36 26 1 C17.75 1 9.5 1 1 1 C1 53.8 1 106.6 1 161 C0.67 161 0.34 161 0 161 C0 107.87 0 54.74 0 0 Z " fill="#BB181E" transform="translate(88,40)"/>
<path d="M0 0 C0.33 0 0.66 0 1 0 C1 2.64 1 5.28 1 8 C0.01 8.33 -0.98 8.66 -2 9 C-2.33 9.99 -2.66 10.98 -3 12 C-4.64821244 13.03013277 -6.31503702 14.03114628 -8 15 C-8.33 15.66 -8.66 16.32 -9 17 C-14.42749739 20.41731317 -20.81696922 20.14279549 -27.0234375 20.09765625 C-28.01694214 20.09614563 -28.01694214 20.09614563 -29.03051758 20.09460449 C-31.47869628 20.08941589 -33.92685008 20.07545499 -36.375 20.0625 C-41.86125 20.041875 -47.3475 20.02125 -53 20 C-53 34.19 -53 48.38 -53 63 C-63.56 63 -74.12 63 -85 63 C-85 62.67 -85 62.34 -85 62 C-74.77 62 -64.54 62 -54 62 C-54 47.81 -54 33.62 -54 19 C-43.44 19 -32.88 19 -22 19 C-22 18.34 -22 17.68 -22 17 C-20.71416016 16.70609375 -20.71416016 16.70609375 -19.40234375 16.40625 C-11.4069707 14.31501376 -6.45043685 12.11224876 -2 5 C-0.56298277 2.22146084 -0.56298277 2.22146084 0 0 Z " fill="#3D0608" transform="translate(172,140)"/>
<path d="M0 0 C3 0.125 3 0.125 4 1.125 C5.92478813 1.28306531 7.8549921 1.376135 9.78515625 1.44140625 C10.95498047 1.48330078 12.12480469 1.52519531 13.33007812 1.56835938 C15.17762695 1.62733398 15.17762695 1.62733398 17.0625 1.6875 C18.29806641 1.73068359 19.53363281 1.77386719 20.80664062 1.81835938 C23.87097335 1.92484198 26.93539073 2.02685424 30 2.125 C30 2.455 30 2.785 30 3.125 C19.44 3.125 8.88 3.125 -2 3.125 C-2 17.315 -2 31.505 -2 46.125 C-11.57 46.125 -21.14 46.125 -31 46.125 C-31 45.795 -31 45.465 -31 45.125 C-22.09 45.125 -13.18 45.125 -4 45.125 C-4.01160156 41.96035156 -4.02320312 38.79570312 -4.03515625 35.53515625 C-4.04294594 32.48380636 -4.0490232 29.43245756 -4.05493164 26.38110352 C-4.05997298 24.25381986 -4.06680591 22.12653969 -4.07543945 19.99926758 C-4.08751379 16.94872174 -4.09323014 13.89822155 -4.09765625 10.84765625 C-4.10281754 9.89037125 -4.10797882 8.93308624 -4.11329651 7.9467926 C-4.11340981 6.62553627 -4.11340981 6.62553627 -4.11352539 5.27758789 C-4.115746 4.49815323 -4.11796661 3.71871857 -4.12025452 2.91566467 C-3.91102474 -0.19989707 -3.16338221 0.13180759 0 0 Z " fill="#9C1419" transform="translate(120,155.875)"/>
<path d="M0 0 C0.33 0 0.66 0 1 0 C1.1391875 12.37853425 1.24571672 24.75688151 1.31087303 37.13603973 C1.34214934 42.88459468 1.3845557 48.63261316 1.45263672 54.38085938 C1.51795953 59.93112948 1.55373388 65.48088447 1.56926346 71.0315094 C1.58032649 73.14620571 1.60193049 75.26087469 1.63438034 77.37535095 C1.67811484 80.34394642 1.68392693 83.31042968 1.68115234 86.27929688 C1.71350983 87.58265991 1.71350983 87.58265991 1.746521 88.91235352 C1.67992838 95.52282899 -0.58079397 99.17026106 -5 104 C-5.66 103.01 -6.32 102.02 -7 101 C-5.02 100.505 -5.02 100.505 -3 100 C-3 98.35 -3 96.7 -3 95 C-2.34 95 -1.68 95 -1 95 C-0.67 63.65 -0.34 32.3 0 0 Z " fill="#CE1A21" transform="translate(171,47)"/>
<path d="M0 0 C0.33 0 0.66 0 1 0 C1 22.44 1 44.88 1 68 C14.9737278 68.32817528 14.9737278 68.32817528 28 65 C28 66.32 28 67.64 28 69 C18.76 69 9.52 69 0 69 C0 46.23 0 23.46 0 0 Z " fill="#CF181F" transform="translate(115,68)"/>
<path d="M0 0 C1.21171875 0.00322266 2.4234375 0.00644531 3.671875 0.00976562 C4.94289062 0.01814453 6.21390625 0.02652344 7.5234375 0.03515625 C8.8021875 0.03966797 10.0809375 0.04417969 11.3984375 0.04882812 C14.56515042 0.06064422 17.73177106 0.0771181 20.8984375 0.09765625 C20.8984375 0.75765625 20.8984375 1.41765625 20.8984375 2.09765625 C21.8884375 2.09765625 22.8784375 2.09765625 23.8984375 2.09765625 C24.5584375 4.07765625 25.2184375 6.05765625 25.8984375 8.09765625 C23.86010326 6.82369735 21.85991624 5.48703702 19.8984375 4.09765625 C19.8984375 3.43765625 19.8984375 2.77765625 19.8984375 2.09765625 C7.20395075 1.72590881 -4.85520005 2.48951038 -17.40625 4.44140625 C-21.00680475 4.99028002 -24.45037423 5.24225777 -28.1015625 5.09765625 C-28.1015625 4.76765625 -28.1015625 4.43765625 -28.1015625 4.09765625 C-22.16954996 2.63896464 -16.48195383 1.76381543 -10.38671875 1.34375 C-6.69008104 0.94565055 -3.91710033 -0.01830421 0 0 Z " fill="#750D12" transform="translate(146.1015625,38.90234375)"/>
<path d="M0 0 C9.24 0 18.48 0 28 0 C28.33 0.99 28.66 1.98 29 3 C33.29 3 37.58 3 42 3 C42 3.66 42 4.32 42 5 C36.72 5 31.44 5 26 5 C25.67 3.68 25.34 2.36 25 1 C16.75 1 8.5 1 0 1 C0 0.67 0 0.34 0 0 Z " fill="#C91921" transform="translate(89,40)"/>
<path d="M0 0 C0.33 0 0.66 0 1 0 C1 2.64 1 5.28 1 8 C0.01 8.33 -0.98 8.66 -2 9 C-2.33 9.99 -2.66 10.98 -3 12 C-7.51127225 15.72179961 -12.15833799 17.45831861 -18 18 C-20.2734375 17.54296875 -20.2734375 17.54296875 -22 17 C-21.14277344 16.8040625 -20.28554687 16.608125 -19.40234375 16.40625 C-11.4069707 14.31501376 -6.45043685 12.11224876 -2 5 C-0.56298277 2.22146084 -0.56298277 2.22146084 0 0 Z " fill="#841013" transform="translate(172,140)"/>
<path d="M0 0 C0.7822998 -0.00902344 1.56459961 -0.01804688 2.37060547 -0.02734375 C7.93966773 0.00216773 7.93966773 0.00216773 10.1875 2.25 C9.18847656 2.23839844 8.18945312 2.22679687 7.16015625 2.21484375 C5.86980469 2.20582031 4.57945312 2.19679687 3.25 2.1875 C1.31833984 2.17009766 1.31833984 2.17009766 -0.65234375 2.15234375 C-3.67548403 1.88467451 -3.67548403 1.88467451 -4.8125 3.25 C-6.3012186 3.33669432 -7.793945 3.35703494 -9.28515625 3.34765625 C-10.18427734 3.34443359 -11.08339844 3.34121094 -12.00976562 3.33789062 C-12.95529297 3.32951172 -13.90082031 3.32113281 -14.875 3.3125 C-15.82439453 3.30798828 -16.77378906 3.30347656 -17.75195312 3.29882812 C-20.10553065 3.2870011 -22.45898477 3.27052025 -24.8125 3.25 C-24.8125 2.92 -24.8125 2.59 -24.8125 2.25 C-16.51912334 0.88000268 -8.40854164 0.04076045 0 0 Z " fill="#C71920" transform="translate(155.8125,39.75)"/>
<path d="M0 0 C0.33 1.32 0.66 2.64 1 4 C-7.25 4 -15.5 4 -24 4 C-24 3.67 -24 3.34 -24 3 C-23.37955811 2.98018066 -22.75911621 2.96036133 -22.11987305 2.93994141 C-19.30865463 2.84468155 -16.49817834 2.73500698 -13.6875 2.625 C-12.71103516 2.5940625 -11.73457031 2.563125 -10.72851562 2.53125 C-9.32182617 2.47324219 -9.32182617 2.47324219 -7.88671875 2.4140625 C-7.02264404 2.3826416 -6.15856934 2.3512207 -5.26831055 2.31884766 C-2.72257555 2.12811963 -2.72257555 2.12811963 0 0 Z " fill="#AF151D" transform="translate(142,133)"/>
<path d="M0 0 C0.33 0 0.66 0 1 0 C1 2.64 1 5.28 1 8 C0.01 8.33 -0.98 8.66 -2 9 C-2.33 9.99 -2.66 10.98 -3 12 C-3.66 11.67 -4.32 11.34 -5 11 C-3.35 7.37 -1.7 3.74 0 0 Z " fill="#450708" transform="translate(172,140)"/>
<path d="M0 0 C3.96 0 7.92 0 12 0 C12 0.33 12 0.66 12 1 C3.57142857 3.28571429 3.57142857 3.28571429 -1 3 C-0.67 2.01 -0.34 1.02 0 0 Z " fill="#D01922" transform="translate(146,155)"/>
<path d="M0 0 C1.65 0 3.3 0 5 0 C5 0.66 5 1.32 5 2 C5.99 2 6.98 2 8 2 C8.66 3.98 9.32 5.96 10 8 C7.96166576 6.7260411 5.96147874 5.38938077 4 4 C4 3.34 4 2.68 4 2 C2.68 1.34 1.36 0.68 0 0 Z " fill="#6B0C10" transform="translate(162,39)"/>
</svg>
